<svg id="b903f711-aed7-4a93-ba46-223bf34e5fbf" data-name="Layer 1" xmlns="http://www.w3.org/2000/svg" width="865.76" height="682.89" viewBox="0 0 865.76 682.89"><g id="f9d4baf3-ebe6-4092-9061-63ef840f1f4e" data-name="freepik--Window--inject-720"><g opacity="0.3"><path d="M493.93,39.52V524.86H651.6V39.52ZM643.65,50.3V122H578V50.3Zm-75.43,0V122H501.83V50.3Zm-66.39,83h66.39v71.07H501.83ZM643.65,514.08H501.87V216.66H643.65ZM578,204.37V133.3h65.61v71.07Z" fill="none" stroke="#000" stroke-linecap="round" stroke-linejoin="round"/><path d="M651,39.52V524.86H808.63V39.52ZM800.71,50.3V122H735.09V50.3Zm-75.44,0V122H658.88V50.3Zm-66.39,83h66.39v71.07H658.88ZM800.71,514.08H658.92V216.66H800.71ZM735.09,204.37V133.3h65.62v71.07Z" fill="none" stroke="#000" stroke-linecap="round" stroke-linejoin="round"/><line x1="608.36" y1="297.27" x2="568.78" y2="346.53" fill="none" stroke="#000" stroke-linecap="round" stroke-linejoin="round"/><line x1="618.19" y1="285.04" x2="611.89" y2="292.87" fill="none" stroke="#000" stroke-linecap="round" stroke-linejoin="round"/><line x1="525.75" y1="382.44" x2="517.63" y2="391.98" fill="none" stroke="#000" stroke-linecap="round" stroke-linejoin="round"/><line x1="578.31" y1="320.69" x2="531.82" y2="375.31" fill="none" stroke="#000" stroke-linecap="round" stroke-linejoin="round"/><line x1="767.84" y1="312.31" x2="728.26" y2="361.57" fill="none" stroke="#000" stroke-linecap="round" stroke-linejoin="round"/><line x1="777.67" y1="300.08" x2="771.37" y2="307.9" fill="none" stroke="#000" stroke-linecap="round" stroke-linejoin="round"/><line x1="685.23" y1="397.49" x2="677.13" y2="407.02" fill="none" stroke="#000" stroke-linecap="round" stroke-linejoin="round"/><line x1="737.8" y1="335.72" x2="691.3" y2="390.36" fill="none" stroke="#000" stroke-linecap="round" stroke-linejoin="round"/><line x1="786.13" y1="61.56" x2="767.18" y2="85.14" fill="none" stroke="#000" stroke-linecap="round" stroke-linejoin="round"/><line x1="790.83" y1="55.7" x2="787.81" y2="59.46" fill="none" stroke="#000" stroke-linecap="round" stroke-linejoin="round"/><line x1="746.59" y1="102.33" x2="742.69" y2="106.89" fill="none" stroke="#000" stroke-linecap="round" stroke-linejoin="round"/><line x1="771.75" y1="72.76" x2="749.48" y2="98.92" fill="none" stroke="#000" stroke-linecap="round" stroke-linejoin="round"/><line x1="712.2" y1="61.56" x2="693.25" y2="85.14" fill="none" stroke="#000" stroke-linecap="round" stroke-linejoin="round"/><line x1="716.9" y1="55.7" x2="713.88" y2="59.46" fill="none" stroke="#000" stroke-linecap="round" stroke-linejoin="round"/><line x1="672.65" y1="102.33" x2="668.78" y2="106.89" fill="none" stroke="#000" stroke-linecap="round" stroke-linejoin="round"/><line x1="697.82" y1="72.76" x2="675.56" y2="98.92" fill="none" stroke="#000" stroke-linecap="round" stroke-linejoin="round"/><line x1="712.2" y1="149.89" x2="693.25" y2="173.48" fill="none" stroke="#000" stroke-linecap="round" stroke-linejoin="round"/><line x1="716.9" y1="144.04" x2="713.88" y2="147.8" fill="none" stroke="#000" stroke-linecap="round" stroke-linejoin="round"/><line x1="672.65" y1="190.67" x2="668.78" y2="195.23" fill="none" stroke="#000" stroke-linecap="round" stroke-linejoin="round"/><line x1="697.82" y1="161.1" x2="675.56" y2="187.26" fill="none" stroke="#000" stroke-linecap="round" stroke-linejoin="round"/><line x1="778.13" y1="149.89" x2="759.19" y2="173.48" fill="none" stroke="#000" stroke-linecap="round" stroke-linejoin="round"/><line x1="782.83" y1="144.04" x2="779.82" y2="147.8" fill="none" stroke="#000" stroke-linecap="round" stroke-linejoin="round"/><line x1="738.59" y1="190.67" x2="734.71" y2="195.23" fill="none" stroke="#000" stroke-linecap="round" stroke-linejoin="round"/><line x1="763.75" y1="161.1" x2="741.5" y2="187.26" fill="none" stroke="#000" stroke-linecap="round" stroke-linejoin="round"/><line x1="630.27" y1="61.56" x2="611.32" y2="85.14" fill="none" stroke="#000" stroke-linecap="round" stroke-linejoin="round"/><line x1="634.97" y1="55.7" x2="631.96" y2="59.46" fill="none" stroke="#000" stroke-linecap="round" stroke-linejoin="round"/><line x1="590.73" y1="102.33" x2="586.85" y2="106.89" fill="none" stroke="#000" stroke-linecap="round" stroke-linejoin="round"/><line x1="615.89" y1="72.76" x2="593.64" y2="98.92" fill="none" stroke="#000" stroke-linecap="round" stroke-linejoin="round"/><line x1="630.27" y1="147.84" x2="611.32" y2="171.42" fill="none" stroke="#000" stroke-linecap="round" stroke-linejoin="round"/><line x1="634.97" y1="141.99" x2="631.96" y2="145.74" fill="none" stroke="#000" stroke-linecap="round" stroke-linejoin="round"/><line x1="590.73" y1="188.61" x2="586.85" y2="193.18" fill="none" stroke="#000" stroke-linecap="round" stroke-linejoin="round"/><line x1="615.89" y1="159.06" x2="593.64" y2="185.2" fill="none" stroke="#000" stroke-linecap="round" stroke-linejoin="round"/><line x1="558.34" y1="147.84" x2="539.4" y2="171.42" fill="none" stroke="#000" stroke-linecap="round" stroke-linejoin="round"/><line x1="563.05" y1="141.99" x2="560.03" y2="145.74" fill="none" stroke="#000" stroke-linecap="round" stroke-linejoin="round"/><line x1="518.79" y1="188.61" x2="514.91" y2="193.18" fill="none" stroke="#000" stroke-linecap="round" stroke-linejoin="round"/><line x1="543.95" y1="159.06" x2="521.7" y2="185.2" fill="none" stroke="#000" stroke-linecap="round" stroke-linejoin="round"/><line x1="553.34" y1="61.56" x2="534.39" y2="85.14" fill="none" stroke="#000" stroke-linecap="round" stroke-linejoin="round"/><line x1="558.05" y1="55.7" x2="555.04" y2="59.46" fill="none" stroke="#000" stroke-linecap="round" stroke-linejoin="round"/><line x1="513.8" y1="102.33" x2="509.92" y2="106.89" fill="none" stroke="#000" stroke-linecap="round" stroke-linejoin="round"/><line x1="538.96" y1="72.76" x2="516.71" y2="98.92" fill="none" stroke="#000" stroke-linecap="round" stroke-linejoin="round"/></g></g><path d="M72.45,184.25H576a7.71,7.71,0,0,1,7.71,7.71v388.8a0,0,0,0,1,0,0h-519a0,0,0,0,1,0,0V192A7.71,7.71,0,0,1,72.45,184.25Z" fill="#d1d3d4"/><rect x="453.4" y="447.81" width="107.05" height="72.76" opacity="0.21"/><path d="M620.61,445.88s-51.43,0-50.57-13.29c0,0-3-81.43,7.72-108.86,0,0,13.28-32.57,48.85-15.85,0,0,33.86-21.86,58.29,19.71,0,0,16.28,32.57,20.57,99.43,0,0,1.29,6.86-13.29,10.29l-25.28,6.85Z" fill="#2f2e41"/><path d="M546,514s10.72-57,64.72-57.86c0,0,67.28-5.57,88.71,3.43,0,0,43.71,4.72,48.86,84.43,0,0-26.57,9.86-39.86,9.43,0,0,12.43,80.14,10.71,85.71l-62.92-.29-86.22.29Z" fill="#0071f2"/><path d="M72.45,184.25H576a7.71,7.71,0,0,1,7.71,7.71v22.91a0,0,0,0,1,0,0h-519a0,0,0,0,1,0,0V192A7.71,7.71,0,0,1,72.45,184.25Z" fill="#bcbec0"/><circle cx="83.97" cy="199.56" r="5.89" fill="#d1d3d4"/><circle cx="105.96" cy="199.56" r="5.89" fill="#d1d3d4"/><circle cx="127.94" cy="199.56" r="5.89" fill="#ccc"/><rect x="233.55" y="228.22" width="181.38" height="40.04" fill="#bcbec0"/><rect x="87.51" y="281.61" width="473.46" height="7.85" fill="#bcbec0"/><rect x="89.22" y="301.81" width="346.26" height="36.9" fill="#bcbec0"/><rect x="210.78" y="310.66" width="99.72" height="18.06" opacity="0.21"/><rect x="87.25" y="351.23" width="121.96" height="120.92" fill="#bcbec0"/><polygon points="125.19 411.95 87.25 472.15 209.21 472.15 183.56 437.6 161.57 460.11 125.19 411.95" opacity="0.21"/><circle cx="172.57" cy="395.2" r="13.61" opacity="0.21"/><rect x="225.44" y="349.66" width="148.14" height="8.38" opacity="0.21"/><rect x="225.44" y="369.03" width="209.38" height="5.23" opacity="0.21"/><rect x="225.44" y="381.07" width="209.38" height="5.23" opacity="0.21"/><rect x="225.44" y="393.1" width="209.38" height="5.23" opacity="0.21"/><rect x="225.44" y="405.14" width="209.38" height="5.23" opacity="0.21"/><rect x="225.44" y="430.27" width="209.38" height="5.23" opacity="0.21"/><rect x="225.44" y="442.31" width="209.38" height="5.23" opacity="0.21"/><rect x="225.44" y="454.87" width="209.38" height="5.23" opacity="0.21"/><rect x="225.44" y="466.39" width="209.38" height="5.23" opacity="0.21"/><rect x="225.44" y="419.8" width="176.93" height="4.71" opacity="0.21"/><rect x="454.18" y="302.02" width="106.26" height="7.85" opacity="0.21"/><rect x="453.14" y="318.78" width="107.31" height="65.43" opacity="0.21"/><rect x="452.87" y="392.06" width="108.35" height="4.71" opacity="0.21"/><rect x="452.87" y="404.36" width="85.85" height="4.97" opacity="0.21"/><rect x="452.87" y="417.18" width="107.05" height="4.45" opacity="0.21"/><rect x="452.87" y="529.73" width="108.35" height="4.71" opacity="0.21"/><rect x="452.87" y="542.03" width="85.85" height="4.97" opacity="0.21"/><rect x="452.87" y="554.85" width="107.05" height="4.45" opacity="0.21"/><rect x="333.53" y="505.38" width="84.89" height="4.6" opacity="0.21"/><rect x="333.53" y="517.69" width="100.04" height="4.92" opacity="0.21"/><rect x="333.53" y="530.51" width="68.57" height="4.45" opacity="0.21"/><rect x="333.53" y="541.87" width="82.68" height="4.72" opacity="0.21"/><rect x="333.53" y="553.54" width="100.99" height="4.73" opacity="0.21"/><rect x="452.87" y="430.53" width="107.05" height="8.11" opacity="0.21"/><rect x="271.5" y="505.65" width="54.96" height="52.87" fill="#bcbec0"/><rect x="150.32" y="504.86" width="84.89" height="4.6" opacity="0.21"/><rect x="150.32" y="517.16" width="100.04" height="4.92" opacity="0.21"/><rect x="150.32" y="529.99" width="68.57" height="4.45" fill="#bcbec0"/><rect x="150.32" y="541.35" width="82.68" height="4.72" opacity="0.21"/><rect x="150.32" y="553.01" width="100.99" height="4.73" opacity="0.21"/><rect x="88.29" y="505.12" width="54.96" height="52.87" fill="#bcbec0"/><path d="M432.68,619.61,415.26,524.5a8.37,8.37,0,0,1,8.19-9.88l141.17-.72a13.81,13.81,0,0,1,13.64,11.28L595.11,616a9.86,9.86,0,0,1-9.69,11.65h-143A9.84,9.84,0,0,1,432.68,619.61Z" fill="#2f2e41"/><path d="M448,627.69H589.4a0,0,0,0,1,0,0v11.18a0,0,0,0,1,0,0H448a5.59,5.59,0,0,1-5.59-5.59v0A5.59,5.59,0,0,1,448,627.69Z" fill="#2f2e41"/><path d="M448,627.69H589.4a0,0,0,0,1,0,0v11.18a0,0,0,0,1,0,0H448a5.59,5.59,0,0,1-5.59-5.59v0A5.59,5.59,0,0,1,448,627.69Z" opacity="0.21"/><path d="M589.4,627.69h66.86a5.59,5.59,0,0,1,5.59,5.59h0a5.59,5.59,0,0,1-5.59,5.59H589.4Z" fill="#2f2e41"/><rect x="594.15" y="631.77" width="12.54" height="3" opacity="0.21"/><circle cx="505.18" cy="569.88" r="14.14" opacity="0.21"/><g opacity="0.2"><polygon points="582.75 549.32 582.27 546.93 591.12 498.21 592.1 498.4 582.75 549.32"/></g><path d="M617.18,627.73s5-131,3.58-151.71l.28-16s12.86,13.86,42,2c0,0,1.14,55.43-3.43,80.86s.57,86.28.57,86.28-.42-1.51-3.92-1.47Z" fill="#fff"/><path d="M621.49,436.05,621,460s13.72,14.29,42,2l9.43-6.71-5.57-55.72Z" fill="#f9b499"/><path d="M671.61,502.45s-12.43-22.72-2.14-20.57c0,0,20.14,12,26.57,35.57l12.43,36s14.57.43,36.43-8.36c0,0,15.43,76.5-25.72,85.07,0,0-32.57,13.72-42.42-40.71,0,0-9.43-40.29-11.58-59.57,0,0-35.18,2-37.19-21a38.47,38.47,0,0,0-.56-4.14c-.94-4.91-2.17-17.19,8.43-19.69a12.71,12.71,0,0,1,11.75,3.51C652.38,493.22,661.59,501,671.61,502.45Z" fill="#f9b499"/><path d="M618,475.67a7.86,7.86,0,0,0,2.74.35l.5-27.93s-10.36-.95-12.35,12.75C608,467.37,611.68,473.85,618,475.67Z" fill="#0071f2"/><path d="M618,475.67a7.86,7.86,0,0,0,2.74.35l.5-27.93s-10.36-.95-12.35,12.75C608,467.37,611.68,473.85,618,475.67Z" opacity="0.2"/><path d="M656.07,469.8l.55-13.09a5.25,5.25,0,0,1,3.12-4.59l11.11-4.94a5.28,5.28,0,0,1,7,2.71,22.72,22.72,0,0,1,1.83,8.55,6.84,6.84,0,0,1-1.69,4.75c-2.92,3.31-9.38,9.62-17.11,10.82A4.12,4.12,0,0,1,656.07,469.8Z" fill="#0071f2"/><path d="M656.07,469.8l.55-13.09a5.25,5.25,0,0,1,3.12-4.59l11.11-4.94a5.28,5.28,0,0,1,7,2.71,22.72,22.72,0,0,1,1.83,8.55,6.84,6.84,0,0,1-1.69,4.75c-2.92,3.31-9.38,9.62-17.11,10.82A4.12,4.12,0,0,1,656.07,469.8Z" opacity="0.2"/><g id="b1c6b2e4-780b-4a1d-ab83-68d9e1092fe5" data-name="freepik--Table--inject-720"><line x1="809.11" y1="639.25" x2="52.26" y2="639.25" fill="none" stroke="#3f3d56" stroke-linecap="round" stroke-linejoin="round"/></g><path d="M764.12,541.93a16,16,0,0,0,1.08,6.64c3.27,8.18,4.22,11.55,2.89,18.19" fill="none" stroke="#2f2e41" stroke-linecap="round" stroke-miterlimit="10"/><path d="M767.28,531.48a24.21,24.21,0,0,0-2.33,5.59" fill="none" stroke="#263238" stroke-linecap="round" stroke-miterlimit="10"/><path d="M779,531.48s-5.43,8.76-2.1,17.12,4.24,11.55,2.91,18.19" fill="none" stroke="#2f2e41" stroke-linecap="round" stroke-miterlimit="10"/><path d="M792.05,562a26.11,26.11,0,0,1-.57,4.82" fill="none" stroke="#263238" stroke-linecap="round" stroke-miterlimit="10"/><path d="M790.67,531.48s-5.43,8.76-2.09,17.12a75.51,75.51,0,0,1,2.66,7.43" fill="none" stroke="#2f2e41" stroke-linecap="round" stroke-miterlimit="10"/><path d="M800.7,584.49s5.42-5.42,9.37-1,2.45,26.56-1,33.49-11.35.36-11.35.36v-4.79s3.53,3.26,7.47-.67,2.87-19.53,1.33-22-7.38,1-7.38,1Z" fill="#2f2e41"/><polygon points="797.65 638.38 760.22 638.38 755.55 572.7 802.32 572.7 797.65 638.38" fill="#2f2e41"/><path d="M621.26,445.91V435.4s23.17,7,36.94-13.77C658.2,421.63,655.84,446.91,621.26,445.91Z" fill="#f4a48e"/><ellipse cx="629.18" cy="385.23" rx="40.29" ry="52.5" fill="#f9b499"/><path d="M586.76,364s20.57-6,27.42-23.14c0,0,22.29,39.85,54.43,31.71l11.57-24.43L669,337.88l-39.43-16.29s-26.57,3-28.28,3.43S586.76,364,586.76,364Z" fill="#2f2e41"/><ellipse cx="671.97" cy="386.09" rx="9.93" ry="14.79" fill="#f9b499"/></svg>